PathFileType	4	(X/Y/Z)	s09c0101.trc
DataRate	CameraRate	NumFrames	NumMarkers	Units	OrigDataRate	OrigDataStartFrame	OrigNumFrames
200	200	4	50	mm	200	0	2000
Frame#	Time	racr			lacr			c7			jug			rlel			rdr			llel			ldr			s2			lic			ric			lasi			rasi			rpsi			lpsi			rgt			lgt			rth1			rth2			rth3			rth4			rlfc			rmfc			rsh1			rsh2			rsh3			rsh4			rlmal			rmmal			rcal			rtoe			rmt5			lth1			lth2			lth4			lth3			llfc			lmfc			llmal			lmmal			lcal			lmt5			lsh1			lsh2			lsh3			lsh4			ltoe			SBIKE			LBIKE			RBIKE			
		X1	Y1	Z1	X2	Y2	Z2	X3	Y3	Z3	X4	Y4	Z4	X5	Y5	Z5	X6	Y6	Z6	X7	Y7	Z7	X8	Y8	Z8	X9	Y9	Z9	X10	Y10	Z10	X11	Y11	Z11	X12	Y12	Z12	X13	Y13	Z13	X14	Y14	Z14	X15	Y15	Z15	X16	Y16	Z16	X17	Y17	Z17	X18	Y18	Z18	X19	Y19	Z19	X20	Y20	Z20	X21	Y21	Z21	X22	Y22	Z22	X23	Y23	Z23	X24	Y24	Z24	X25	Y25	Z25	X26	Y26	Z26	X27	Y27	Z27	X28	Y28	Z28	X29	Y29	Z29	X30	Y30	Z30	X31	Y31	Z31	X32	Y32	Z32	X33	Y33	Z33	X34	Y34	Z34	X35	Y35	Z35	X36	Y36	Z36	X37	Y37	Z37	X38	Y38	Z38	X39	Y39	Z39	X40	Y40	Z40	X41	Y41	Z41	X42	Y42	Z42	X43	Y43	Z43	X44	Y44	Z44	X45	Y45	Z45	X46	Y46	Z46	X47	Y47	Z47	X48	Y48	Z48	X49	Y49	Z49	X50	Y50	Z50	
0	0.0000	485.436098	1304.394151	-95.391243	507.178010	1287.770839	-413.451057	459.238189	1328.241519	-255.820595	469.977939	1189.396586	-249.840136	516.580434	1061.619445	-5.623664	691.827419	875.667491	-53.678972	488.209703	1023.847328	-518.447354	683.323107	876.521093	-449.276802	-17.159861	1149.366461	-239.501977	123.491472	1113.822832	-383.094902	138.323024	1121.655913	-101.146426	142.056406	1044.607420	-364.390170	162.253258	1055.649727	-115.569295	23.569766	1175.647702	-183.087204	19.017533	1178.993020	-293.107981	80.526016	989.754566	-44.194721	61.683267	1005.138068	-433.772847	170.982579	883.859430	-50.491211	242.367042	836.049671	-59.006493	278.875159	754.207839	-65.323604	267.453394	856.327792	-75.731446	323.600693	664.537775	-100.303765	304.523492	652.131399	-196.427056	243.132648	599.434384	-70.095588	201.165272	520.743653	-84.566897	126.642669	474.713458	-84.082121	220.457783	507.585657	-116.882200	56.206295	403.428757	-85.342938	62.568526	413.383789	-164.279656	-33.333256	396.906856	-124.133612	213.218768	301.584561	-124.194535	129.730647	313.411122	-60.219658	170.860311	922.760286	-429.550282	253.294312	902.224861	-424.123678	272.056183	932.877585	-412.285816	318.071733	839.244302	-421.802532	392.599260	774.106680	-401.945247	412.658431	764.962313	-304.542805	352.841001	412.098246	-409.709959	368.058746	423.494934	-339.314250	284.348342	372.082547	-374.377784	454.872979	335.630861	-433.652683	378.830104	675.340563	-424.717926	393.612231	589.543560	-415.686242	362.737763	506.811917	-415.232799	419.491625	590.147488	-386.470133	544.029353	356.413405	-363.721631	-65.152850	853.008870	-240.109695	21.298530	83.536226	-441.842092	21.513583	83.660531	-43.454522	
1	0.0050	485.463772	1304.356140	-95.414782	507.216054	1287.722764	-413.440851	459.288937	1328.180188	-255.846924	470.001421	1189.331188	-249.824203	516.579692	1061.597857	-5.614619	691.805975	875.710986	-53.659671	488.193201	1023.798910	-518.425486	683.337936	876.526041	-449.274263	-17.150440	1149.358155	-239.504834	123.507830	1113.818494	-383.066648	138.320677	1121.683984	-101.149093	142.067307	1044.607193	-364.381766	162.270449	1055.642901	-115.564258	23.576477	1175.635115	-183.094099	19.040864	1178.981765	-293.120660	80.545768	989.755131	-44.187022	61.688445	1005.125424	-433.777669	170.999485	883.864193	-50.490150	242.370765	836.078174	-59.006389	278.912704	754.220518	-65.331745	267.463980	856.346353	-75.727848	323.606768	664.539236	-100.305806	304.546506	652.122359	-196.430707	243.141470	599.445671	-70.097867	201.172824	520.788394	-84.566101	126.639950	474.724112	-84.080009	220.479783	507.590210	-116.879149	56.229177	403.483318	-85.329801	62.565509	413.400071	-164.286832	-33.349184	396.914816	-124.120705	213.203583	301.637088	-124.191345	129.740821	313.446378	-60.230921	170.862793	922.731003	-429.573719	253.301208	902.182842	-424.136893	272.044644	932.822296	-412.311964	318.065383	839.202681	-421.800258	392.593831	774.072862	-401.947597	412.626944	764.928852	-304.549486	352.848034	412.043590	-409.694401	368.067964	423.464962	-339.316073	284.359720	372.027808	-374.373147	454.886707	335.586650	-433.648033	378.821920	675.297364	-424.741317	393.608128	589.493171	-415.673268	362.740003	506.774175	-415.243983	419.487941	590.103955	-386.477650	544.038084	356.391151	-363.724812	-65.146479	852.999943	-240.117316	21.294728	83.542757	-441.837989	21.512507	83.658414	-43.456427	
2	0.0100	485.490447	1304.335139	-95.417184	507.242115	1287.679554	-413.439242	459.309085	1328.118099	-255.824456	470.019980	1189.281254	-249.828143	516.574850	1061.580804	-5.595922	691.801767	875.710370	-53.662658	488.163960	1023.744231	-518.421014	683.324651	876.533203	-449.294494	-17.155190	1149.358620	-239.516590	123.519865	1113.812763	-383.063084	138.322270	1121.677472	-101.170136	142.062871	1044.611429	-364.400028	162.270664	1055.650222	-115.565958	23.574234	1175.635727	-183.093630	19.063305	1178.976022	-293.123158	80.546919	989.752175	-44.200222	61.701803	1005.109940	-433.798864	171.017341	883.869374	-50.493609	242.395184	836.086559	-59.025820	278.936940	754.225636	-65.336300	267.498278	856.350574	-75.753981	323.626888	664.518041	-100.313792	304.564649	652.113294	-196.416113	243.131486	599.455172	-70.108036	201.170620	520.806626	-84.574616	126.644622	474.737841	-84.082190	220.455226	507.599558	-116.874349	56.228870	403.516243	-85.331888	62.594914	413.417723	-164.295366	-33.347631	396.943632	-124.117213	213.211132	301.675518	-124.202666	129.717075	313.477726	-60.227789	170.863020	922.699789	-429.586658	253.295879	902.146076	-424.148300	272.045906	932.798533	-412.321925	318.050534	839.160970	-421.812398	392.576382	774.027684	-401.953842	412.610333	764.890787	-304.569631	352.857166	412.011656	-409.700889	368.088994	423.447957	-339.319344	284.362225	371.994905	-374.375703	454.882371	335.556320	-433.645658	378.827755	675.265553	-424.747168	393.612733	589.469313	-415.669767	362.744983	506.740717	-415.249130	419.483791	590.082041	-386.478709	544.045100	356.335951	-363.721705	-65.148928	852.996266	-240.125093	21.296019	83.538603	-441.836118	21.533291	83.624849	-43.462011	
3	0.0150	485.342547	1305.099062	-95.291110	507.256268	1287.614260	-413.432261	459.208123	1328.108172	-255.843937	470.069792	1190.732429	-250.502545	516.816251	1061.468579	-5.371473	691.739350	875.738282	-53.684061	488.457744	1023.199578	-517.978397	683.316837	876.523136	-449.293017	-17.096621	1149.404151	-239.516847	123.518418	1113.809556	-383.080047	138.139162	1121.541765	-101.152764	142.083513	1044.616073	-364.397452	162.270342	1055.642780	-115.563922	23.864675	1175.158131	-183.244779	19.041026	1178.682880	-293.210399	80.883763	989.679938	-43.939689	61.703867	1005.104258	-433.802055	171.021358	883.872054	-50.496528	242.972942	835.640454	-58.779335	278.950173	754.254405	-65.325448	267.175700	855.970033	-76.208348	323.775751	664.240133	-100.167239	304.569201	652.117190	-196.421151	243.145817	599.454829	-70.096408	201.341509	520.731631	-84.320326	126.205417	475.361137	-83.711005	220.417344	507.903219	-116.807571	56.316065	403.365710	-84.788634	61.858049	413.952255	-164.379268	-33.358577	396.982682	-124.123466	213.207185	301.726104	-124.193257	129.716766	313.509960	-60.223955	170.865003	922.682944	-429.586012	253.290182	902.118288	-424.156827	271.805702	933.206984	-412.351127	317.962365	839.109783	-421.432903	392.569285	773.833330	-402.024326	412.597017	764.871708	-304.588131	352.511159	412.598502	-410.165159	368.110378	423.445014	-339.310831	284.369671	371.975496	-374.375443	454.891583	335.531640	-433.641327	378.819192	675.221706	-424.759327	393.640323	589.626037	-416.076545	362.748801	506.692584	-415.252784	419.521939	589.935426	-386.421462	544.046505	356.296276	-363.722876	-65.158004	853.014844	-240.113421	21.290381	83.540479	-441.836311	21.524550	83.625431	-43.445435	
